<svg width="64" height="66" viewBox="0 0 64 66" fill="none" xmlns="http://www.w3.org/2000/svg">
<path d="M32.0001 12.827C20.8767 12.827 11.8271 21.8762 11.8271 33C11.8271 44.1239 20.8767 53.1731 32.0001 53.1731C43.1236 53.1731 52.1732 44.1235 52.1732 33C52.1732 21.8766 43.1236 12.827 32.0001 12.827ZM32.0001 49.0481C28.8261 49.0481 25.7234 48.1069 23.0843 46.3435C20.4452 44.5801 18.3883 42.0738 17.1737 39.1414C15.959 36.209 15.6412 32.9822 16.2604 29.8692C16.8796 26.7562 18.4081 23.8967 20.6524 21.6523C22.8968 19.408 25.7563 17.8796 28.8693 17.2603C31.9823 16.6411 35.209 16.9589 38.1414 18.1736C41.0738 19.3882 43.5802 21.4451 45.3436 24.0842C47.107 26.7233 48.0482 29.826 48.0482 33C48.0434 37.2548 46.351 41.3339 43.3425 44.3424C40.3339 47.351 36.2548 49.0433 32.0001 49.0481ZM63.399 40.138L61.2876 33.2773C61.2238 33.0981 61.2238 32.9023 61.2876 32.723L63.3991 25.8624C63.7135 24.8659 63.709 23.7962 63.3861 22.8025C63.0632 21.8088 62.4381 20.9407 61.598 20.3194L55.8571 16.0102C55.7 15.9026 55.5849 15.7442 55.531 15.5616L53.2069 8.76953C52.8756 7.77851 52.2431 6.91568 51.3978 6.30151C50.5524 5.68734 49.5364 5.35249 48.4915 5.34372L41.3139 5.2317C41.1237 5.23699 40.9375 5.17648 40.7868 5.06038L34.9143 0.932158C34.0638 0.325018 33.0449 -0.00134277 32 -0.00134277C30.955 -0.00134277 29.9362 0.325018 29.0857 0.932158L23.2136 5.06038C23.0628 5.17648 22.8765 5.23698 22.6863 5.2317L15.5088 5.34372C14.4639 5.35249 13.4478 5.68734 12.6025 6.30151C11.7571 6.91568 11.1246 7.77851 10.7934 8.76953L8.46906 15.5612C8.41522 15.7437 8.30013 15.9021 8.14318 16.0097L2.40234 20.3189C1.56222 20.9401 0.937073 21.8082 0.614181 22.802C0.291289 23.7957 0.286773 24.8654 0.601264 25.8619L2.71262 32.7228C2.77627 32.902 2.77627 33.0978 2.71262 33.2771L0.601136 40.1378C0.286644 41.1343 0.29116 42.204 0.614052 43.1977C0.936944 44.1915 1.56209 45.0596 2.40221 45.6808L8.14318 49.9899C8.30016 50.0974 8.41526 50.2558 8.46906 50.4383L10.7934 57.2305C11.1246 58.2216 11.7571 59.0844 12.6025 59.6986C13.4478 60.3127 14.4639 60.6476 15.5088 60.6564L22.686 60.7684C22.8762 60.7631 23.0625 60.8235 23.2134 60.9396L29.0859 65.0679C29.9364 65.675 30.9552 66.0013 32.0001 66.0013C33.045 66.0013 34.0638 65.675 34.9143 65.0679L40.7866 60.9397C40.9375 60.8236 41.1237 60.7631 41.314 60.7684L48.4915 60.6564C49.5364 60.6476 50.5524 60.3127 51.3978 59.6985C52.2431 59.0843 52.8756 58.2215 53.2067 57.2304L55.531 50.4389C55.5849 50.2564 55.7 50.098 55.8569 49.9904L61.5978 45.6812C62.438 45.06 63.0632 44.1918 63.3861 43.1981C63.7091 42.2043 63.7135 41.1344 63.399 40.138ZM59.122 42.3822L53.3811 46.6914C52.5614 47.2945 51.9492 48.1373 51.6289 49.1033L49.3045 55.8948C49.2475 56.0819 49.1311 56.2453 48.973 56.3602C48.8148 56.4752 48.6234 56.5354 48.4279 56.5319L41.2502 56.6438C40.2326 56.65 39.2421 56.9719 38.4153 57.5651L32.5422 61.6933C32.386 61.8111 32.1957 61.8748 32.0001 61.8748C31.8045 61.8748 31.6142 61.8111 31.4581 61.6933L25.5855 57.5648C24.7586 56.9717 23.7681 56.6498 22.7506 56.6436L15.5731 56.5317C15.3776 56.5353 15.1862 56.475 15.0281 56.3601C14.8699 56.2451 14.7535 56.0817 14.6965 55.8947L12.3722 49.1031C12.0519 48.1371 11.4396 47.2944 10.6199 46.6913L4.87824 42.3822C4.71783 42.2702 4.59832 42.1089 4.53784 41.9228C4.47736 41.7367 4.4792 41.5359 4.54309 41.351L6.65457 34.4903C6.96317 33.5206 6.96317 32.479 6.65457 31.5092L4.54309 24.6486C4.4792 24.4636 4.47736 24.2629 4.53784 24.0768C4.59832 23.8907 4.71783 23.7294 4.87824 23.6173L10.6192 19.3081C11.4389 18.705 12.0511 17.8623 12.3713 16.8963L14.6957 10.1047C14.7527 9.91769 14.8691 9.75431 15.0273 9.63935C15.1855 9.5244 15.3768 9.46413 15.5723 9.46769L22.7495 9.35567C23.7675 9.34977 24.7584 9.02789 25.5855 8.4345L31.4587 4.30679C31.6148 4.18893 31.805 4.12516 32.0006 4.12516C32.1962 4.12516 32.3865 4.18893 32.5426 4.30679L38.4145 8.43502C39.2414 9.02825 40.232 9.35012 41.2497 9.35618L48.4272 9.4682C48.6227 9.46467 48.814 9.52494 48.9721 9.6399C49.1303 9.75485 49.2467 9.91822 49.3037 10.1053L51.628 16.8967C51.9483 17.8627 52.5605 18.7055 53.3802 19.3086L59.122 23.6179C59.2824 23.7299 59.4019 23.8912 59.4624 24.0773C59.5229 24.2634 59.5211 24.4642 59.4571 24.6491L57.3457 31.5098C57.0369 32.4795 57.0369 33.5211 57.3457 34.4908L59.4571 41.3514C59.5209 41.5363 59.5227 41.7369 59.4623 41.9229C59.4018 42.109 59.2823 42.2702 59.122 42.3822ZM43.1892 25.7059C43.3722 25.9056 43.5141 26.1393 43.6067 26.3938C43.6994 26.6483 43.741 26.9186 43.7292 27.1892C43.7174 27.4598 43.6525 27.7254 43.538 27.9709C43.4236 28.2164 43.2619 28.4369 43.0622 28.6199L30.1864 40.421C29.806 40.7694 29.3088 40.9626 28.7929 40.9624C28.7538 40.9624 28.7147 40.9613 28.6756 40.9591C28.4006 40.9434 28.1314 40.8728 27.8841 40.7514C27.6368 40.63 27.4163 40.4603 27.2356 40.2523L20.7755 32.8144C20.597 32.6101 20.4606 32.3725 20.374 32.1153C20.2875 31.8581 20.2526 31.5864 20.2712 31.3157C20.2899 31.045 20.3618 30.7807 20.4828 30.5378C20.6038 30.2949 20.7716 30.0783 20.9764 29.9004C21.1813 29.7225 21.4193 29.5867 21.6767 29.5009C21.9341 29.4151 22.2059 29.381 22.4765 29.4004C22.7472 29.4198 23.0113 29.4925 23.2539 29.6142C23.4964 29.7359 23.7125 29.9042 23.8899 30.1096L28.9609 35.949L40.2751 25.5793C40.6783 25.2097 41.2119 25.0153 41.7584 25.0391C42.3049 25.0628 42.8195 25.3027 43.1892 25.7059Z" fill="#F93939"/>
</svg>
