<svg xmlns="http://www.w3.org/2000/svg" xmlns:xlink="http://www.w3.org/1999/xlink" version="1.1" x="0px" y="0px" viewBox="0 0 100 125" enable-background="new 0 0 100 100" xml:space="preserve"><g><path d="M11.676,57.719v31.28c0,1.27,1.03,2.3,2.3,2.3h69.46c1.27,0,2.3-1.03,2.3-2.3v-31.28c0-1.27-1.03-2.3-2.3-2.3h-69.46   C12.705,55.419,11.676,56.449,11.676,57.719z M21,85.792C21,86.459,20.459,87,19.792,87h-0.584C18.541,87,18,86.459,18,85.792   V60.208C18,59.541,18.541,59,19.208,59h0.584C20.459,59,21,59.541,21,60.208V85.792z M36,85.792C36,86.459,35.459,87,34.792,87   h-0.584C33.541,87,33,86.459,33,85.792V60.208C33,59.541,33.541,59,34.208,59h0.584C35.459,59,36,59.541,36,60.208V85.792z    M51,85.792C51,86.459,50.459,87,49.792,87h-0.584C48.541,87,48,86.459,48,85.792V60.208C48,59.541,48.541,59,49.208,59h0.584   C50.459,59,51,59.541,51,60.208V85.792z M65,85.792C65,86.459,64.459,87,63.792,87h-0.584C62.541,87,62,86.459,62,85.792V60.208   C62,59.541,62.541,59,63.208,59h0.584C64.459,59,65,59.541,65,60.208V85.792z M80,85.792C80,86.459,79.459,87,78.792,87h-0.584   C77.541,87,77,86.459,77,85.792V60.208C77,59.541,77.541,59,78.208,59h0.584C79.459,59,80,59.541,80,60.208V85.792z"/><path d="M81.083,15.665l-3.271-0.668c-1.36-0.278-2.773-0.138-4.052,0.401l-16.882,7.104L30.899,6.093L27.47,7.926L45.522,27.28   l-14.676,6.176L18.717,22.411l-3.253,0.905l7.405,13.497l-6.63,2.79l3.276,2.879l17.458-1.559L77.23,23.982   c1.355-0.571,2.493-1.56,3.245-2.824l1.742-2.925C82.824,17.215,82.244,15.902,81.083,15.665z"/><polygon points="59.867,32.99 59.891,39.909 55.107,40.851 51.471,36.628  "/><polygon points="86.086,36.229 71.156,37.276 73.401,41.035 61.275,47 12,47 12,51 62.356,51 75.733,44.713 77.882,48.562  "/></g></svg>